<?xml version="1.0" encoding="utf-8"?>
<!-- Generator: Adobe Illustrator 25.1.0, SVG Export Plug-In . SVG Version: 6.00 Build 0)  -->
<svg version="1.1" id="Layer_1" xmlns="http://www.w3.org/2000/svg" xmlns:xlink="http://www.w3.org/1999/xlink" x="0px" y="0px"
	 viewBox="0 0 2995 32.3" style="enable-background:new 0 0 2995 32.3;" xml:space="preserve">
<style type="text/css">
	.st0{fill:none;}
	.st1{fill:#1D5297;}
</style>
<path class="st0" d="M3003.8,0h-8.6c5.4,15.1,8.5,23.5,8.6,23.8V0z"/>
<path class="st0" d="M2040.5,15.6c-384.2,23.4-496.9,21.2-853.5,0s-485,0-485,0S419.7,48.2,212.6,0H0v32.3h3003.8v-8.6
	C3003.3,23.8,2424.6-7.7,2040.5,15.6z"/>
<path class="st1" d="M702,15.6c0,0,128.4-21.2,485,0s469.2,23.4,853.5,0c384.1-23.3,962.8,8.1,963.3,8.1c-0.1-0.2-3.1-8.7-8.6-23.8
	H212.6C419.7,48.2,702,15.6,702,15.6z"/>
</svg>
